<?xml version="1.0" encoding="utf-8"?>
<!-- Generator: Adobe Illustrator 27.5.0, SVG Export Plug-In . SVG Version: 6.00 Build 0)  -->
<svg height="30px" width="30px" version="1.1" id="Layer_1" xmlns="http://www.w3.org/2000/svg" xmlns:xlink="http://www.w3.org/1999/xlink" x="0px" y="0px"
	 viewBox="0 0 30 30" style="enable-background:new 0 0 30 30;" xml:space="preserve">
<style type="text/css">
	.st0{fill:#0D0D82;stroke:#0D0D82;stroke-width:0.7768;stroke-miterlimit:10;}
	.st1{fill:#0D0D82;}
</style>
<g>
	<path class="st0" d="M16.7,12.3H13c-0.5,0-0.9,0.4-0.9,0.9V17c0,0.5,0.4,1,0.9,1c0,0,0,0,0,0h3.8c0.5,0,0.9-0.4,0.9-0.9
		c0,0,0,0,0,0v-3.8C17.7,12.8,17.2,12.3,16.7,12.3z M12.2,13.3c0-0.4,0.3-0.7,0.7-0.7h3.8c0.4,0,0.7,0.3,0.7,0.7l0,0v1.4h-5.2
		L12.2,13.3z M17.5,17c0,0.4-0.3,0.7-0.7,0.7h0H13c-0.4,0-0.7-0.3-0.7-0.7v0v-0.9h5.2L17.5,17z"/>
	<g>
		<path class="st1" d="M27.6,10.9c0.6,0,1.1,0.5,1.1,1.1V18c0,0.6-0.5,1.1-1.1,1.1H2.4c-0.6,0-1.1-0.5-1.1-1.1V12
			c0-0.6,0.5-1.1,1.1-1.1H27.6 M27.6,9.6H2.4C1.1,9.6,0,10.6,0,12V18c0,1.3,1.1,2.4,2.4,2.4h25.2c1.3,0,2.4-1.1,2.4-2.4V12
			C30,10.6,28.9,9.6,27.6,9.6L27.6,9.6z"/>
	</g>
</g>
</svg>
