<?xml version="1.0" encoding="utf-8"?>
<!-- Generator: Adobe Illustrator 27.5.0, SVG Export Plug-In . SVG Version: 6.00 Build 0)  -->
<svg height="30px" width="30px" version="1.1" id="SvgjsSvg1001" xmlns:svgjs="http://svgjs.com/svgjs"
	 xmlns="http://www.w3.org/2000/svg" xmlns:xlink="http://www.w3.org/1999/xlink" x="0px" y="0px" viewBox="0 0 30 30"
	 style="enable-background:new 0 0 30 30;" xml:space="preserve">
<style type="text/css">
	.st0{fill:#0D0D82;stroke:#0D0D82;stroke-width:0.7335;stroke-miterlimit:10;}
</style>
<g id="SvgjsG1008">
	<g>
		<path class="st0" d="M6.6,10.5h-5c-0.7,0-1.3,0.6-1.3,1.3v5c0,0.7,0.6,1.3,1.3,1.4c0,0,0,0,0,0h5c0.7,0,1.3-0.6,1.3-1.3
			c0,0,0,0,0,0v-5C8,11.1,7.4,10.5,6.6,10.5z M0.6,11.8c0-0.5,0.4-1,1-1c0,0,0,0,0,0h5c0.5,0,1,0.4,1,1l0,0v2.7h-7V11.8z M7.6,16.8
			c0,0.5-0.4,1-1,1l0,0h-5c-0.5,0-1-0.4-1-0.9c0,0,0,0,0,0v-0.5h7L7.6,16.8L7.6,16.8z"/>
		<path class="st0" d="M16.8,6.1c-4.5,0-8.3,1.5-10.6,3.9c0.2,0,0.3,0.1,0.4,0.2c2.3-2.2,6-3.6,10.2-3.6c6.9,0,12.5,3.8,12.5,8.4
			s-5.6,8.4-12.5,8.4c-4.8,0-9-1.9-11.1-4.6c-0.2,0-0.3,0.1-0.5,0.1c2.1,2.9,6.5,5,11.6,5c7.1,0,12.9-4,12.9-8.8S23.9,6.1,16.8,6.1z
			"/>
	</g>
</g>
</svg>
