<?xml version="1.0" encoding="utf-8"?>
<!-- Generator: Adobe Illustrator 27.5.0, SVG Export Plug-In . SVG Version: 6.00 Build 0)  -->
<svg height="30px" width="30px" version="1.0" id="Layer_1" xmlns="http://www.w3.org/2000/svg" xmlns:xlink="http://www.w3.org/1999/xlink" x="0px" y="0px"
	 viewBox="0 0 469.5 469.5" style="enable-background:new 0 0 469.5 469.5;" xml:space="preserve">
<style type="text/css">
	.st0{fill:#820082;}
	.st1{fill:none;stroke:#820082;stroke-width:24.9158;stroke-linecap:round;stroke-miterlimit:10;}
</style>
<g>
	<path class="st0" d="M293.5,11.9c-42.1,0-84,16-116.1,48.1c-64.1,64.1-64.1,168,0,232.2c32.1,32.1,74,48.1,116.1,48.1
		s84-16,116.1-48.1c64.1-64.1,64.1-168,0-232.2C377.5,27.9,335.4,11.9,293.5,11.9L293.5,11.9z M293.5,55.9
		c32.1,0,62.3,12.5,84.9,35.2c22.7,22.7,35.2,52.9,35.2,84.9s-12.5,62.3-35.2,84.9c-22.7,22.7-52.9,35.2-84.9,35.2
		s-62.3-12.5-84.9-35.2c-22.7-22.7-35.2-52.9-35.2-84.9s12.5-62.3,35.2-84.9C231.2,68.4,261.3,55.9,293.5,55.9"/>
	<line class="st1" x1="13.1" y1="456.4" x2="177.2" y2="292.3"/>
</g>
</svg>
