<?xml version="1.0" encoding="utf-8"?>
<!-- Generator: Adobe Illustrator 27.5.0, SVG Export Plug-In . SVG Version: 6.00 Build 0)  -->
<svg height="30px" width="30px" version="1.1" id="SvgjsSvg1072" xmlns:svgjs="http://svgjs.com/svgjs"
	 xmlns="http://www.w3.org/2000/svg" xmlns:xlink="http://www.w3.org/1999/xlink" x="0px" y="0px" viewBox="0 0 30 30"
	 style="enable-background:new 0 0 30 30;" xml:space="preserve">
<style type="text/css">
	.st0{fill:#C0A742;stroke:#C0A742;stroke-width:0.9865;stroke-miterlimit:10;}
	.st1{fill:#C0A742;stroke:#C0A742;stroke-width:0.6178;stroke-miterlimit:10;}
</style>
<g>
	<path class="st0" d="M27,20.5H3c-1.4,0-2.5-1.1-2.5-2.5v0v-6c0-1.4,1.1-2.5,2.4-2.5c0,0,0.1,0,0.1,0h24c1.4,0,2.5,1.1,2.5,2.5v6
		C29.5,19.4,28.4,20.5,27,20.5z M3,10.3c-0.9,0-1.7,0.8-1.7,1.7v6c0,0.9,0.8,1.7,1.7,1.7h0h24c0.9,0,1.7-0.8,1.7-1.7v-6
		c0-0.9-0.7-1.7-1.7-1.7C27,10.3,3,10.3,3,10.3z"/>
	<path class="st1" d="M14.1,17.5c-0.1,0-0.2,0-0.3-0.1l-1.7-1.2c-0.2-0.1-0.3-0.4-0.1-0.6c0,0,0,0,0,0c0.2-0.2,0.4-0.3,0.7-0.1
		l1.3,0.9l3.2-3.8c0.2-0.2,0.5-0.2,0.7-0.1c0.2,0.2,0.2,0.5,0.1,0.7l0,0l-3.4,4.1C14.4,17.5,14.3,17.5,14.1,17.5z"/>
</g>
</svg>
