<?xml version="1.0" encoding="utf-8"?>
<!-- Generator: Adobe Illustrator 27.5.0, SVG Export Plug-In . SVG Version: 6.00 Build 0)  -->
<svg height="30px" width="30px" version="1.0" id="SvgjsSvg1399" xmlns:svgjs="http://svgjs.com/svgjs"
	 xmlns="http://www.w3.org/2000/svg" xmlns:xlink="http://www.w3.org/1999/xlink" x="0px" y="0px" viewBox="0 0 469.5 469.5"
	 style="enable-background:new 0 0 469.5 469.5;" xml:space="preserve">
<style type="text/css">
	.st0{fill:#0D0D82;}
	.st1{fill:none;stroke:#0D0D82;stroke-width:13.5706;stroke-miterlimit:8.3333;}
	.st2{fill:#0D0D82;stroke:#0D0D82;stroke-width:6.8824;stroke-miterlimit:10;}
</style>
<g id="SvgjsG1401">
	<g>
		<path class="st0" d="M241.9,151.1c-26,0-110.6,1.6-110.6,21.2v156.4c0,19.7,84.8,21.2,110.6,21.2s110.8-1.6,110.8-21.2V172.3
			C352.7,152.6,267.8,151.1,241.9,151.1z M241.9,161.7c33.1-1.7,66.4,1.9,98.4,10.5c-32.1,8.7-65.3,12.2-98.4,10.5
			c-33.1,1.7-66.3-1.9-98.2-10.5C175.7,163.7,208.8,160.1,241.9,161.7z M340.1,328.7c-3.5,2.2-7.5,3.3-11.5,3.5
			c-4.4,1-8.8,1.7-13.4,2.4c-12.7,1.9-25.5,3-38.3,3.7c-12.9,0.7-23.2,0.9-34.9,0.9c-16.1,0-32.2,0-48.4-1.7
			c-8.2,0-16.1-1.6-24.1-2.8c-7.6-0.7-14.9-2.2-22.2-4.2c-1.4-0.4-2.6-1.1-3.5-2.1c-1.7-1.9-2.5-4.4-2.1-7c0-7.8,0-15.4,0-23.2
			v-98.5c0.5-5.6,0.5-11.3,0-17c23.6,9.8,79.5,10.7,99.9,10.7s76.5-0.9,100.1-10.7v91.7c0,16.1,0,32.2,0,48.4
			c0.1,1.6-0.2,3.1-0.9,4.6L340.1,328.7z"/>
		<path class="st1" d="M134.7,261c0,0,112,36,214.6,0 M134.7,296c0,0,112,36,214.6,0"/>
		<path class="st2" d="M262.6,16.7c56.6,0,113.4,0,169.6,0c18.1-0.4,33,14.1,33.3,32.1c0.3,17-12.5,31.5-29.5,33.2h-5.6
			c-16.1,0-16.1,0-16.1,15.7v315.7c3.1,18.5-9.2,36-27.7,39.1c-3.7,0.7-7.6,0.7-11.3,0H40c-18,2-34.1-11.2-36-29.2
			c-1.8-18.1,11.3-34.1,29.4-36l0,0h6.5c17,0,17,0,17-17V56c-3.2-18.5,9.1-36,27.6-39.1c3.6-0.6,7.4-0.7,11.1,0L262.6,16.7
			L262.6,16.7z M69.7,65.1c0,111.6,0,220.5,0,329.8c2.7,15.2,0.4,30.9-6.5,44.7h313c18.2,0,25.3-7.1,25.3-25.7
			c0-107.9,0-215.6,0-323.3c0-7.8-2.6-8.8-9.3-8.8H94.7C83.4,83.1,72.9,76,69.7,65.1z M116.9,69.5h317.4c8,0.3,15.2-4.5,18.3-11.9
			c4.4-10.2-0.2-22.1-10.4-26.5c-3.2-1.4-6.8-2-10.3-1.6H121.4c-1.6,0-3.2-1-4.4,1.4C124.8,42.6,124.7,57.8,116.9,69.5z M45.1,425.7
			h-3.5c-0.7,0.3-1.4,0.3-2.1,0c-1-0.7-1.6-1.9-1.7-3c-0.7-2.1-0.7-4.3,0-6.5c1.6-5.2,9.5-6.3,5.8-13.1c-3.7-6.8-7.1-3.9-11.2-2.8
			c-10.5,3-16.6,14-13.7,24.6c1.4,5,4.7,9.1,9.2,11.8c6.5,4,14.8,3.8,21-0.7c2.5-1.6,4.3-3.7,5.6-6.3c1.4-4.4-5.6-4.2-10.2-3.9
			L45.1,425.7z M70,58.5C73,49,82.1,42.7,92,43.4h12c4.2,0,4.4-1.7,2.4-4.7c-3.8-6.3-11-9.8-18.3-8.9c-7.8,0.6-14.6,5.8-17,13.3
			C69.6,47.9,69.1,53.3,70,58.5z M107.9,56.2H89.8c-3.4-0.3-6.5,2.2-6.9,5.6c-0.1,0.6,0,1.1,0.1,1.7c0,4.4,3.4,6.1,7.7,6.1
			C98.6,69.2,105.6,63.8,107.9,56.2z"/>
	</g>
</g>
</svg>
