<?xml version="1.0" encoding="utf-8"?>
<!-- Generator: Adobe Illustrator 27.5.0, SVG Export Plug-In . SVG Version: 6.00 Build 0)  -->
<svg height="30px" width="30px" version="1.1" id="Layer_1" xmlns="http://www.w3.org/2000/svg" xmlns:xlink="http://www.w3.org/1999/xlink" x="0px" y="0px"
	 viewBox="0 0 469.5 469.5" style="enable-background:new 0 0 469.5 469.5;" xml:space="preserve">
<style type="text/css">
	.st0{fill:none;stroke:#820082;stroke-width:11.0277;stroke-miterlimit:10;}
	.st1{fill:#820082;}
</style>
<g>
	<path class="st0" d="M233.5,82.8c83-1.1,151.3,65.3,152.4,148.3s-65.3,151.3-148.3,152.4S86.3,318.2,85.2,235.2
		S150.4,83.9,233.5,82.8z M121.2,234.7c0.9,63.1,52.7,113.6,115.9,112.8c63.1-0.9,113.6-52.7,112.8-115.9
		c-0.9-63.1-52.7-113.6-115.9-112.8S120.3,171.5,121.2,234.7z"/>
	<g>
		<path class="st1" d="M103.5,227.8c3.8,0,7,3.1,7.1,7c0,1.9-0.7,3.7-2,5c-1.3,1.4-3.1,2.1-5,2.1l-0.1,0c-3.8,0-7-3.1-7.1-7
			c0-1.9,0.7-3.7,2-5c1.3-1.4,3.1-2.1,5-2.1L103.5,227.8 M103.5,216.8c-0.1,0-0.2,0-0.3,0c-10,0.1-18,8.3-17.8,18.3
			c0.1,9.9,8.2,17.9,18.1,17.9c0.1,0,0.2,0,0.3,0c10-0.1,18-8.3,17.8-18.3C121.4,224.8,113.4,216.8,103.5,216.8L103.5,216.8z"/>
	</g>
	<g>
		<path class="st1" d="M121.9,294.8c2.5,0,4.8,1.3,6.1,3.5c1,1.6,1.2,3.5,0.8,5.4c-0.5,1.8-1.6,3.4-3.2,4.3c-1.1,0.7-2.3,1-3.6,1
			c-2.5,0-4.8-1.3-6.1-3.5c-2-3.3-0.9-7.7,2.5-9.7C119.5,295.1,120.7,294.8,121.9,294.8 M121.9,283.8c-3.2,0-6.3,0.8-9.2,2.6
			c-8.6,5.1-11.4,16.2-6.3,24.8c3.4,5.7,9.4,8.8,15.6,8.8c3.2,0,6.3-0.8,9.2-2.6c8.6-5.1,11.4-16.2,6.3-24.8
			C134.1,286.9,128.1,283.8,121.9,283.8L121.9,283.8z"/>
	</g>
	<g>
		<path class="st1" d="M171.5,343.5L171.5,343.5c1.2,0,2.4,0.3,3.4,0.9c1.6,0.9,2.8,2.4,3.4,4.2c0.5,1.8,0.3,3.7-0.6,5.4
			c-1.2,2.2-3.6,3.6-6.2,3.6c-1.2,0-2.4-0.3-3.4-0.9c-1.6-0.9-2.8-2.4-3.4-4.2c-0.5-1.8-0.3-3.7,0.6-5.4
			C166.5,344.9,168.9,343.5,171.5,343.5 M171.5,332.5c-6.3,0-12.5,3.3-15.8,9.3c-4.9,8.7-1.8,19.8,7,24.6c2.8,1.6,5.8,2.3,8.8,2.3
			c6.3,0,12.5-3.3,15.8-9.3c4.9-8.7,1.8-19.8-7-24.6C177.5,333.2,174.5,332.5,171.5,332.5L171.5,332.5z"/>
	</g>
	<g>
		<path class="st1" d="M238.7,361c3.8,0,7,3.1,7.1,7c0.1,3.9-3.1,7.1-7,7.2l-0.1,0c-3.8,0-7-3.1-7.1-7c0-1.9,0.7-3.7,2-5
			s3.1-2.1,5-2.1L238.7,361 M238.7,350c-0.1,0-0.2,0-0.3,0c-10,0.1-18,8.3-17.8,18.3c0.1,9.9,8.2,17.9,18.1,17.9c0.1,0,0.2,0,0.3,0
			c10-0.1,18-8.3,17.8-18.3C256.6,357.9,248.6,350,238.7,350L238.7,350z"/>
	</g>
	<g>
		<path class="st1" d="M305.6,342.5c2.5,0,4.8,1.3,6.1,3.5c2,3.3,0.9,7.7-2.5,9.7c-1.1,0.7-2.3,1-3.6,1c-2.5,0-4.8-1.3-6.1-3.5
			c-1-1.6-1.2-3.5-0.8-5.4c0.5-1.8,1.6-3.4,3.2-4.3C303.1,342.8,304.3,342.5,305.6,342.5 M305.6,331.5c-3.2,0-6.3,0.8-9.2,2.6
			c-8.6,5.1-11.4,16.2-6.3,24.8c3.4,5.7,9.4,8.8,15.6,8.8c3.2,0,6.3-0.8,9.2-2.6c8.6-5.1,11.4-16.2,6.3-24.8
			C317.8,334.6,311.8,331.5,305.6,331.5L305.6,331.5z"/>
	</g>
	<g>
		<path class="st1" d="M354.4,293L354.4,293c1.2,0,2.4,0.3,3.4,0.9c3.4,1.9,4.6,6.2,2.7,9.6c-1.2,2.2-3.6,3.6-6.2,3.6
			c-1.2,0-2.4-0.3-3.4-0.9c-1.6-0.9-2.8-2.4-3.4-4.2c-0.5-1.8-0.3-3.7,0.6-5.4C349.4,294.4,351.8,293,354.4,293 M354.4,282
			c-6.3,0-12.5,3.3-15.8,9.3c-4.9,8.7-1.8,19.8,7,24.6c2.8,1.6,5.8,2.3,8.8,2.3c6.3,0,12.5-3.3,15.8-9.3c4.9-8.7,1.8-19.8-7-24.6
			C360.4,282.7,357.4,282,354.4,282L354.4,282z"/>
	</g>
	<g>
		<path class="st1" d="M371.8,225.8c3.8,0,7,3.1,7.1,7c0,1.9-0.7,3.7-2,5c-1.3,1.4-3.1,2.1-5,2.1l-0.1,0c-3.8,0-7-3.1-7.1-7
			c0-1.9,0.7-3.7,2-5c1.3-1.4,3.1-2.1,5-2.1L371.8,225.8 M371.8,214.8c-0.1,0-0.2,0-0.3,0c-10,0.1-18,8.3-17.8,18.3
			c0.1,9.9,8.2,17.9,18.1,17.9c0.1,0,0.2,0,0.3,0c10-0.1,18-8.3,17.8-18.3C389.8,222.7,381.7,214.8,371.8,214.8L371.8,214.8z"/>
	</g>
	<g>
		<path class="st1" d="M353.3,158.9c2.5,0,4.8,1.3,6.1,3.5c1,1.6,1.2,3.5,0.8,5.4c-0.5,1.8-1.6,3.4-3.2,4.3c-1.1,0.7-2.3,1-3.6,1
			c-2.5,0-4.8-1.3-6.1-3.5c-2-3.3-0.9-7.7,2.5-9.7C350.8,159.2,352,158.9,353.3,158.9 M353.3,147.8c-3.2,0-6.3,0.8-9.2,2.6
			c-8.6,5.1-11.4,16.2-6.3,24.8c3.4,5.7,9.4,8.8,15.6,8.8c3.2,0,6.3-0.8,9.2-2.6c8.6-5.1,11.4-16.2,6.3-24.8
			C365.5,151,359.5,147.8,353.3,147.8L353.3,147.8z"/>
	</g>
	<g>
		<path class="st1" d="M303.9,110.1L303.9,110.1c1.2,0,2.4,0.3,3.4,0.9c1.6,0.9,2.8,2.4,3.4,4.2c0.5,1.8,0.3,3.7-0.6,5.4
			c-1.2,2.2-3.6,3.6-6.2,3.6c-1.2,0-2.4-0.3-3.4-0.9c-3.4-1.9-4.6-6.2-2.7-9.6C298.9,111.5,301.3,110.1,303.9,110.1 M303.9,99.1
			c-6.3,0-12.5,3.3-15.8,9.3c-4.9,8.7-1.8,19.8,7,24.6c2.8,1.6,5.8,2.3,8.8,2.3c6.3,0,12.5-3.3,15.8-9.3c4.9-8.7,1.8-19.8-7-24.6
			C309.9,99.8,306.9,99.1,303.9,99.1L303.9,99.1z"/>
	</g>
	<g>
		<path class="st1" d="M236.6,92.7c3.8,0,7,3.1,7.1,7c0,1.9-0.7,3.7-2,5c-1.3,1.4-3.1,2.1-5,2.1l-0.1,0c-3.8,0-7-3.1-7.1-7
			c0-1.9,0.7-3.7,2-5c1.3-1.4,3.1-2.1,5-2.1L236.6,92.7 M236.6,81.6c-0.1,0-0.2,0-0.3,0c-10,0.1-18,8.3-17.8,18.3
			c0.1,9.9,8.2,17.9,18.1,17.9c0.1,0,0.2,0,0.3,0c10-0.1,18-8.3,17.8-18.3C254.6,89.6,246.5,81.6,236.6,81.6L236.6,81.6z"/>
	</g>
	<g>
		<path class="st1" d="M169.7,111.1c2.5,0,4.8,1.3,6.1,3.5c1,1.6,1.2,3.5,0.8,5.4c-0.5,1.8-1.6,3.4-3.2,4.3c-1.1,0.7-2.3,1-3.6,1
			c-2.5,0-4.8-1.3-6.1-3.5c-2-3.3-0.9-7.7,2.5-9.7C167.2,111.5,168.4,111.1,169.7,111.1 M169.7,100.1c-3.2,0-6.3,0.8-9.2,2.6
			c-8.6,5.1-11.4,16.2-6.3,24.8c3.4,5.7,9.4,8.8,15.6,8.8c3.2,0,6.3-0.8,9.2-2.6c8.6-5.1,11.4-16.2,6.3-24.8
			C181.8,103.3,175.8,100.1,169.7,100.1L169.7,100.1z"/>
	</g>
	<g>
		<path class="st1" d="M121,160.6L121,160.6c1.2,0,2.4,0.3,3.4,0.9c1.6,0.9,2.8,2.4,3.4,4.2c0.5,1.8,0.3,3.7-0.6,5.4
			c-1.2,2.2-3.6,3.6-6.2,3.6c-1.2,0-2.4-0.3-3.4-0.9c-3.4-1.9-4.6-6.2-2.7-9.6C116,162,118.4,160.6,121,160.6 M121,149.6
			c-6.3,0-12.5,3.3-15.8,9.3c-4.9,8.7-1.8,19.8,7,24.6c2.8,1.6,5.8,2.3,8.8,2.3c6.3,0,12.5-3.3,15.8-9.3c4.9-8.7,1.8-19.8-7-24.6
			C127,150.3,123.9,149.6,121,149.6L121,149.6z"/>
	</g>
	<g>
		<path class="st1" d="M234.8,187.5c12.5,0,24.3,4.8,33.2,13.6c8.9,8.8,13.9,20.5,14.1,33c0.4,26.1-20.6,47.5-46.6,47.9
			c-0.2,0-0.4,0-0.7,0c-12.5,0-24.3-4.8-33.2-13.6c-8.9-8.8-13.9-20.5-14.1-33c-0.4-26.1,20.6-47.5,46.6-47.9
			C234.3,187.5,234.5,187.5,234.8,187.5L234.8,187.5 M234.8,177c-0.3,0-0.5,0-0.8,0c-31.9,0.4-57.4,26.6-57,58.5
			c0.4,31.6,26.2,57,57.7,57c0.3,0,0.5,0,0.8,0c31.9-0.4,57.4-26.6,57-58.5C292.1,202.3,266.3,177,234.8,177L234.8,177z"/>
	</g>
	<g>
		<path class="st1" d="M234.8,210.8L234.8,210.8c13,0,23.7,10.6,23.9,23.6c0.2,13.2-10.4,24.1-23.6,24.3l-0.3,0
			c-13,0-23.7-10.6-23.9-23.6c-0.2-13.2,10.4-24.1,23.6-24.3L234.8,210.8 M234.8,205.5c-0.1,0-0.3,0-0.4,0
			c-16.1,0.2-29.1,13.5-28.8,29.6c0.2,16,13.3,28.8,29.2,28.8c0.1,0,0.3,0,0.4,0c16.1-0.2,29.1-13.5,28.8-29.6
			C263.8,218.3,250.7,205.5,234.8,205.5L234.8,205.5z"/>
	</g>
	<polygon class="st1" points="125.2,233.2 176.9,232.5 176.9,235.3 125.2,236 125.3,240.5 179.3,239.7 179.2,228 125.1,228.8 	"/>
	<polygon class="st1" points="178.7,328.9 203.9,283.8 206.3,285.1 181.1,330.3 184.9,332.4 211.3,285.2 201.2,279.5 174.8,326.7 	
		"/>
	<polygon class="st1" points="288.2,330.4 261.8,286 264.1,284.6 290.6,329 294.4,326.7 266.8,280.3 256.7,286.2 284.4,332.7 	"/>
	<polygon class="st1" points="344.3,236.3 292.6,237 292.6,234.2 344.3,233.5 344.2,229 290.2,229.8 290.3,241.5 344.4,240.7 	"/>
	<polygon class="st1" points="290.8,140.6 265.6,185.7 263.2,184.4 288.4,139.2 284.6,137.1 258.2,184.3 268.3,190 294.7,142.8 	"/>
	<polygon class="st1" points="181.3,139.1 207.7,183.5 205.4,184.9 178.9,140.5 175.1,142.8 202.7,189.2 212.8,183.3 185.1,136.8 	
		"/>
	<path class="st1" d="M0,236.3c0.1,7.1,15,12.6,33.4,12.4c12.9-0.2,24-3.2,29.4-7.4l24.8-0.3l-0.2-11.7l-24.8,0.3
		c-5.6-4.1-16.7-6.7-29.6-6.6C14.7,223.3-0.1,229.3,0,236.3z M52.9,235.6c0,2.7-9.2,5-20.7,5.1c-11.5,0.2-20.8-1.9-20.8-4.6
		c0-2.7,9.2-5,20.7-5.1C43.6,230.9,52.9,232.9,52.9,235.6z"/>
	<path class="st1" d="M118.7,438.8c6.2,3.5,18.4-6.7,27.4-22.7c6.3-11.2,9.3-22.4,8.3-29.2l12.1-21.7l-10.2-5.7l-12.1,21.7
		c-6.3,2.8-14.2,11.1-20.5,22.4C114.8,419.6,112.6,435.4,118.7,438.8z M144.6,392.6c2.3,1.3-0.3,10.5-5.9,20.5
		c-5.6,10-12,17.1-14.4,15.7c-2.3-1.3,0.3-10.5,5.9-20.5C135.8,398.4,142.2,391.3,144.6,392.6z"/>
	<path class="st1" d="M353.5,437.3c6.1-3.6,3.4-19.3-6-35.1c-6.6-11.1-14.7-19.2-21.1-21.8L313.7,359l-10,6l12.7,21.3
		c-0.7,6.8,2.5,17.9,9.1,28.9C334.9,431,347.4,440.9,353.5,437.3z M326.4,391.8c2.3-1.4,8.9,5.5,14.8,15.3
		c5.9,9.8,8.8,18.9,6.4,20.3c-2.3,1.4-8.9-5.5-14.8-15.3C327,402.2,324.1,393.1,326.4,391.8z"/>
	<path class="st1" d="M469.5,233.2c-0.1-7.1-15-12.6-33.4-12.4c-12.9,0.2-24,3.2-29.4,7.4l-24.8,0.3l0.2,11.7l24.8-0.3
		c5.6,4.1,16.7,6.7,29.6,6.6C454.8,246.2,469.6,240.2,469.5,233.2z M416.6,233.9c0-2.7,9.2-5,20.7-5.1c11.5-0.2,20.8,1.9,20.8,4.6
		c0,2.7-9.2,5-20.7,5.1C425.9,238.6,416.6,236.6,416.6,233.9z"/>
	<path class="st1" d="M350.8,30.7c-6.2-3.5-18.4,6.7-27.4,22.7c-6.3,11.2-9.3,22.4-8.3,29.2l-12.1,21.7l10.2,5.7l12.1-21.7
		c6.3-2.8,14.2-11.1,20.5-22.4C354.7,49.9,356.9,34.1,350.8,30.7z M324.9,76.9c-2.3-1.3,0.3-10.5,5.9-20.5c5.6-10,12-17.1,14.4-15.7
		c2.3,1.3-0.3,10.5-5.9,20.5C333.7,71.1,327.3,78.2,324.9,76.9z"/>
	<path class="st1" d="M116,32.2c-6.1,3.6-3.4,19.3,6,35.1c6.6,11.1,14.7,19.2,21.1,21.8l12.7,21.3l10-6l-12.7-21.3
		c0.7-6.8-2.5-17.9-9.1-28.9C134.6,38.5,122.1,28.6,116,32.2z M143.1,77.7c-2.3,1.4-8.9-5.5-14.8-15.3c-5.9-9.8-8.8-18.9-6.4-20.3
		c2.3-1.4,8.9,5.5,14.8,15.3C142.5,67.3,145.4,76.4,143.1,77.7z"/>
</g>
</svg>
