<?xml version="1.0" encoding="utf-8"?>
<!-- Generator: Adobe Illustrator 27.5.0, SVG Export Plug-In . SVG Version: 6.00 Build 0)  -->
<svg height="30px" width="30px" version="1.0" id="SvgjsSvg1157" xmlns:svgjs="http://svgjs.com/svgjs"
	 xmlns="http://www.w3.org/2000/svg" xmlns:xlink="http://www.w3.org/1999/xlink" x="0px" y="0px" viewBox="0 0 469.5 469.5"
	 style="enable-background:new 0 0 469.5 469.5;" xml:space="preserve">
<style type="text/css">
	.st0{fill:#820082;stroke:#820082;stroke-width:7.8549;stroke-miterlimit:10;}
</style>
<g id="SvgjsG1159">
	<g>
		<path class="st0" d="M234.8,465.2C105.6,463.3,2.5,360.2,4.3,234.8C2.5,109.3,105.6,6.2,234.8,4.3
			c129.1,2,232.2,105.1,230.4,230.5C467,360.2,363.9,463.3,234.8,465.2z M234.8,15.2C111.9,17.2,13.9,115.4,15.5,234.8
			c-1.7,119.3,96.3,217.5,219.2,219.5c122.9-2.1,220.9-100.2,219.2-219.5C455.6,115.4,357.6,17.2,234.8,15.2z M234.8,398.1
			c-91.5-1.5-164.6-74.4-163.4-163.3c-1.2-88.9,71.9-161.9,163.4-163.3c91.5,1.5,164.6,74.4,163.4,163.3
			C399.3,323.6,326.2,396.6,234.8,398.1z M234.8,82.3c-85.3,1.5-153.3,69.6-152.2,152.4c-1.2,82.9,66.9,151,152.2,152.4
			c85.3-1.5,153.3-69.6,152.2-152.4C388.1,151.9,320,83.8,234.8,82.3z"/>
		<rect x="229.2" y="9.8" class="st0" width="11.2" height="106.1"/>
		<rect x="229.2" y="353.8" class="st0" width="11.2" height="106.1"/>
		<rect x="10" y="220.5" class="st0" width="106.3" height="10.9"/>
		<rect x="349.3" y="229.4" class="st0" width="106.3" height="10.9"/>
		<ellipse class="st0" cx="234.8" cy="234.8" rx="93.3" ry="90.6"/>
	</g>
</g>
</svg>
