<?xml version="1.0" encoding="UTF-8"?>
<svg height="30px" width="30px" id="SvgjsSvg1247" xmlns="http://www.w3.org/2000/svg" xmlns:xlink="http://www.w3.org/1999/xlink" viewBox="0 0 469.5 469.5">
  <defs>
    <style>
      .cls-1 {
        clip-path: url(#clippath);
      }

      .cls-2 {
        fill: none;
      }

      .cls-3 {
        fill: #8d6e63;
      }
    </style>
    <clipPath id="clippath">
      <rect class="cls-2" x="0" width="469.49" height="470.93"/>
    </clipPath>
  </defs>
  <g id="SvgjsG1249">
    <g class="cls-1">
      <g>
        <path class="cls-3" d="m273.46,172.59c-.39,20.44-17.69,36.7-38.63,36.31-20.94-.38-37.6-17.26-37.21-37.7.39-20.17,17.25-36.32,37.92-36.32,21.13.23,38.09,17.09,37.93,37.71Z"/>
        <path class="cls-3" d="m234.68-.14C103.57,1.54-1.41,106.47,0,234.42c-1.5,128.01,103.51,233.03,234.67,234.7,131.33-1.37,236.65-106.37,235.24-234.53,0-.06,0-.11,0-.17C471.35,106.26,366.04,1.25,234.71-.14c0,0-.02,0-.03,0Zm0,107.44h.99c40.08,1.42,71.78,33.64,71.6,72.78,0,48.38-51.85,97.04-72.31,114.92l-4.55-4.02h0c-22.73-20.24-67.62-65.85-67.62-110.9-.33-39.35,31.57-71.78,71.88-73.06v.28Zm1.56,256.05c-44.18-.28-86.8-12.62-86.8-36.46,0-16.64,21.59-27.73,49.44-32.86,5.4,5.41,10.51,10.26,14.92,13.86-30.26,3.33-48.16,12.89-48.16,18.58s26.42,19.96,70.32,19.96,71.03-12.89,71.03-19.96-18.47-15.67-50-18.85c4.55-4.02,9.66-8.73,15.06-13.86,28.41,4.99,51.28,16.22,51.28,33.13,0,23.84-43.89,36.18-87.22,36.18l.14.28Z"/>
      </g>
    </g>
  </g>
</svg>