<?xml version="1.0" encoding="utf-8"?>
<!-- Generator: Adobe Illustrator 27.5.0, SVG Export Plug-In . SVG Version: 6.00 Build 0)  -->
<svg height="30px" width="30px" version="1.1" id="Layer_1" xmlns="http://www.w3.org/2000/svg" xmlns:xlink="http://www.w3.org/1999/xlink" x="0px" y="0px"
	 viewBox="0 0 469.5 469.5" style="enable-background:new 0 0 469.5 469.5;" xml:space="preserve">
<style type="text/css">
	.st0{fill:none;stroke:#000000;stroke-width:15.0737;stroke-miterlimit:10;}
</style>
<g>
	<path d="M202.2,168.3c34.2,0,62.1,27.9,62.1,62.1s-27.9,62.1-62.1,62.1s-62.1-27.9-62.1-62.1S168,168.3,202.2,168.3 M202.2,145.3
		c-47,0-85.1,38.1-85.1,85.1s38.1,85.1,85.1,85.1s85.1-38.1,85.1-85.1S249.2,145.3,202.2,145.3L202.2,145.3z"/>
</g>
<line class="st0" x1="383" y1="230.4" x2="274.3" y2="230.4"/>
<g>
	<path d="M448.9,207.8V253h-45.2v-45.2H448.9 M469.5,187.2H383v86.5h86.5V187.2L469.5,187.2z"/>
</g>
<g>
	<path d="M63.8,58.2v43.2H20.6V58.2H63.8 M84.5,37.6H0V122h84.5V37.6L84.5,37.6z"/>
</g>
<g>
	<path d="M63.8,368.1v43.2H20.6v-43.2H63.8 M84.5,347.5H0V432h84.5V347.5L84.5,347.5z"/>
</g>
<line class="st0" x1="142.9" y1="180.3" x2="73.7" y2="111.1"/>
<line class="st0" x1="145.9" y1="289.4" x2="73.2" y2="358.1"/>
</svg>
