<?xml version="1.0" encoding="utf-8"?>
<!-- Generator: Adobe Illustrator 27.5.0, SVG Export Plug-In . SVG Version: 6.00 Build 0)  -->
<svg height="30px" width="30px" version="1.1" id="Layer_1" xmlns="http://www.w3.org/2000/svg" xmlns:xlink="http://www.w3.org/1999/xlink" x="0px" y="0px"
	 viewBox="0 0 469.5 469.5" style="enable-background:new 0 0 469.5 469.5;" xml:space="preserve">
<style type="text/css">
	.st0{fill:#820082;}
</style>
<path class="st0" d="M469,80.1c-1.3-5-5.2-9-10.2-10.4l-45.9-13.1l-13.1-46c-1.4-5-5.4-8.9-10.4-10.2c-5-1.3-10.4,0.1-14.1,3.8
	l-44.8,44.8c-3.8,3.8-5.2,9.3-3.7,14.4l13,45.5l-36.6,36.6c-32.1-27.4-73.7-44-119.2-44C82.5,101.6,0,184.1,0,285.6
	s82.5,183.9,183.9,183.9S367.9,387,367.9,285.6c0-45.4-16.6-87.1-44-119.2l36.6-36.6l45.5,13c1.3,0.4,2.7,0.6,4,0.6
	c3.8,0,7.6-1.5,10.4-4.3l44.8-44.8C468.9,90.5,470.3,85.1,469,80.1z M338.5,285.6c0,85.2-69.3,154.6-154.6,154.6
	c-85.2,0-154.6-69.4-154.6-154.6S98.7,131,183.9,131c37.3,0,71.6,13.3,98.4,35.4l-26.2,26.2c-20-15.6-45-24.9-72.2-24.9
	c-65,0-117.9,52.9-117.9,117.9s52.9,117.9,117.9,117.9c65,0,117.9-52.9,117.9-117.9c0-27.2-9.4-52.3-24.9-72.2l26.2-26.2
	C325.2,213.9,338.5,248.2,338.5,285.6z M272.5,285.6c0,48.8-39.7,88.6-88.6,88.6s-88.6-39.7-88.6-88.6s39.7-88.6,88.6-88.6
	c19.1,0,36.8,6.2,51.3,16.5L208.7,240c-7.4-4-15.8-6.3-24.8-6.3c-28.6,0-51.9,23.3-51.9,51.9s23.3,51.9,51.9,51.9
	s51.9-23.3,51.9-51.9c0-9-2.3-17.4-6.3-24.8l26.5-26.5C266.3,248.7,272.5,266.4,272.5,285.6z M206.5,285.6
	c0,12.4-10.1,22.5-22.5,22.5s-22.5-10.1-22.5-22.5s10.1-22.5,22.5-22.5c5.6,0,10.7,2.2,14.7,5.6c0.3,0.4,0.6,0.9,1,1.2
	c0.4,0.4,0.8,0.7,1.2,1C204.3,274.8,206.5,279.9,206.5,285.6z M405.7,112.2l-37.7-10.7l-10.7-37.7l21.1-21.1l8.5,29.8
	c1.4,4.9,5.2,8.7,10.1,10.1l29.8,8.5L405.7,112.2z"/>
</svg>
