<?xml version="1.0" encoding="utf-8"?>
<!-- Generator: Adobe Illustrator 28.1.0, SVG Export Plug-In . SVG Version: 6.00 Build 0)  -->
<svg version="1.1" id="Layer_1" xmlns="http://www.w3.org/2000/svg" xmlns:xlink="http://www.w3.org/1999/xlink" x="0px" y="0px"
	 viewBox="0 0 24 24" style="enable-background:new 0 0 24 24;" xml:space="preserve">
<style type="text/css">
	.st0{fill:none;stroke:#CECECE;stroke-width:2;stroke-linecap:round;stroke-linejoin:round;}
</style>
<path class="st0" d="M10,2v3c0,0.6,0.4,1,1,1h5"/>
<path class="st0" d="M18,18v-6c0-0.6-0.4-1-1-1h-6c-0.6,0-1,0.4-1,1v6"/>
<path class="st0" d="M18,22H4c-1.1,0-2-0.9-2-2V6"/>
<path class="st0" d="M8,18c-1.1,0-2-0.9-2-2V4c0-1.1,0.9-2,2-2h9.2c0.5,0,1,0.2,1.4,0.6l2.8,2.8C21.8,5.8,22,6.3,22,6.8V16
	c0,1.1-0.9,2-2,2c0,0,0,0,0,0H8z"/>
</svg>
