<?xml version="1.0" encoding="utf-8"?>
<!-- Generator: Adobe Illustrator 27.5.0, SVG Export Plug-In . SVG Version: 6.00 Build 0)  -->
<svg height="30px" width="30px" version="1.0" id="Layer_1" xmlns="http://www.w3.org/2000/svg" xmlns:xlink="http://www.w3.org/1999/xlink" x="0px" y="0px"
	 viewBox="0 0 469.5 469.5" style="enable-background:new 0 0 469.5 469.5;" xml:space="preserve">
<style type="text/css">
	.st0{fill-rule:evenodd;clip-rule:evenodd;fill:#820082;stroke:#820082;stroke-width:11.645;stroke-miterlimit:10;}
	.st1{fill:#820082;stroke:#820082;stroke-width:11.645;stroke-miterlimit:10;}
</style>
<g id="Layer_2_00000165953259804425777410000018327148701120673925_">
	<path class="st0" d="M7.9,234.7C9,108.4,110.4,6.9,234.5,7.7c124.4-1.2,226.1,100.4,227.3,226.9l0,0
		c-1.1,126.4-102.9,228.1-227.3,227.1C110.3,462.5,9,361,7.9,234.7z M25.4,234.7c1.1,116.5,94.6,210,209.1,209.3
		c114.8,1.1,208.6-92.7,209.7-209.3c-1.1-116.6-94.9-210.4-209.7-209.3C119.7,24.2,25.8,118,24.6,234.6l0,0L25.4,234.7L25.4,234.7z"
		/>
	<path class="st1" d="M234.4,462.6c-124.8,1-226.9-101-228-227.9C7.6,107.9,109.6,6,234.4,6.9c124.8-1.1,226.9,100.8,228.1,227.8
		C461.4,361.6,359.2,463.6,234.4,462.6z M234.4,8.4C110.5,7.5,9.2,108.6,7.9,234.7c1.3,126,102.6,227.2,226.5,226.3
		c124,1,225.3-100.2,226.6-226.3C459.7,108.6,358.3,7.4,234.4,8.4z M234.4,444.8c-115.3,1.3-209.8-92.9-211-210.1l0,0
		c1.3-117.2,95.6-211.3,211-210.1c115.2-1,209.4,93,210.7,210.1C443.8,351.8,349.6,445.8,234.4,444.8z M234.4,26.2
		c-114.3-0.9-207.8,92.4-209,208.5c1.3,116.2,94.7,209.4,208.9,208.5c114.3,1,207.9-92.3,209.1-208.5
		C442.2,118.4,348.7,25.2,234.4,26.2z"/>
	<path class="st1" d="M234.4,462.6c-124.8,1-226.9-101-228-227.9C7.6,107.9,109.6,6,234.4,6.9c124.8-1.1,226.9,100.8,228.1,227.8
		C461.4,361.6,359.2,463.6,234.4,462.6z M234.4,8.4C110.5,7.5,9.2,108.6,7.9,234.7c1.3,126,102.6,227.2,226.5,226.3
		c124,1,225.3-100.2,226.6-226.3C459.7,108.6,358.3,7.4,234.4,8.4z M234.4,444.8c-115.3,1.3-209.8-92.9-211-210.1l0,0
		c1.3-117.2,95.6-211.3,211-210.1c115.2-1,209.4,93,210.7,210.1C443.8,351.8,349.6,445.8,234.4,444.8z M234.4,26.2
		c-114.3-0.9-207.8,92.4-209,208.5c1.3,116.2,94.7,209.4,208.9,208.5c114.3,1,207.9-92.3,209.1-208.5
		C442.2,118.4,348.7,25.2,234.4,26.2z"/>
	<path class="st1" d="M284.4,214.2c-8.5-0.2-16.6-3.8-22.6-9.9c-6.1-6-9.6-14.3-9.8-22.8c-0.1-6.6,2.4-12.9,7-17.7l60.3-60.7
		c11.9-10.2,29.6-8.9,40,2.8c6.1,6,9.6,14.3,9.8,22.8c0.1,6.6-2.4,12.9-7,17.7l-59.8,60.7C297.5,212,291,214.5,284.4,214.2z
		 M336.6,108.8c-3.3-0.1-6.5,1.2-8.8,3.5l-60.1,60.5c-2.2,2.3-3.5,5.5-3.4,8.8c0.2,5.3,2.4,10.4,6.2,14c5.6,7,15.7,8.2,22.8,2.7
		l60.1-60.5c2.2-2.3,3.5-5.5,3.4-8.8C356.2,118,347.5,109.2,336.6,108.8z"/>
	<path class="st1" d="M128.7,371c-17.6-0.6-31.6-14.8-32.4-32.6c-0.1-6.6,2.4-13,7.1-17.7l60.1-60.7c11.8-10.4,29.7-9.1,40,2.8
		c6.1,6,9.6,14.2,9.8,22.8c0.1,6.6-2.4,12.9-7,17.7l-60.1,60.5C141.5,368.6,135.2,371.1,128.7,371z M180.9,265.6
		c-3.2-0.1-6.4,1.2-8.6,3.5L112,330.3c-2.2,2.3-3.5,5.5-3.4,8.8c0.2,5.2,2.4,10.3,6.2,13.9c5.6,7,15.6,8.2,22.8,2.8l60.1-60.7
		c2.2-2.3,3.5-5.4,3.4-8.6c-0.2-5.3-2.4-10.4-6.2-14C191.3,268.4,186.3,265.9,180.9,265.6z"/>
	<polygon class="st1" points="182.6,275.6 279.4,177.8 288.1,186.7 191.1,284.4 	"/>
</g>
</svg>
