<?xml version="1.0" encoding="utf-8"?>
<!-- Generator: Adobe Illustrator 27.5.0, SVG Export Plug-In . SVG Version: 6.00 Build 0)  -->
<svg height="30px" width="30px" version="1.1" id="SvgjsSvg1476" xmlns:svgjs="http://svgjs.com/svgjs"
	 xmlns="http://www.w3.org/2000/svg" xmlns:xlink="http://www.w3.org/1999/xlink" x="0px" y="0px" viewBox="0 0 469.5 469.5"
	 style="enable-background:new 0 0 469.5 469.5;" xml:space="preserve">
<style type="text/css">
	.st0{fill:#820082;}
	.st1{fill:none;stroke:#820082;stroke-width:14.281;stroke-miterlimit:8.3333;}
</style>
<g id="SvgjsG1478">
	<g>
		<rect x="47.2" y="69.5" class="st0" width="265.8" height="19.4"/>
		<rect x="47.2" y="379.4" class="st0" width="265.8" height="19.4"/>
		<path class="st0" d="M302.2,246.3l33.3,20.9c19.9-29.6,41.8-57.8,65.4-84.5c-3.3,4.3-62.4,105.1-62.4,105.1L302.2,246.3z"/>
		<circle class="st1" cx="352.3" cy="234.2" r="109.8"/>
		<path class="st0" d="M283.4,340.6H47.2V360H313v-6.6C302.6,350.5,292.7,346.2,283.4,340.6z M244.5,305.4H47.2v19.4h214.2
			C255.1,319,249.4,312.5,244.5,305.4z M226.3,266.9H47.2v19.4h186.5C230.8,280,228.3,273.5,226.3,266.9z M222.2,234
			c0-2.4,0-4.9,0-7.4H47.2V246h175.5C222.3,242,222.2,238,222.2,234z M231.6,186.8H47.1v19.4h178.4
			C227,199.6,229.1,193.1,231.6,186.8z M258.2,146.8H47.2v19.4h195.2C247.1,159.2,252.3,152.7,258.2,146.8z M313,114.8v-8H47.2v19.4
			h238.1C294.1,121.3,303.4,117.5,313,114.8z"/>
		<path class="st0" d="M346.1,358.1c-2.1,0-4.1,0-6.3,0v79h-320V31.7h320.8v78.8h6.3h6.1V19.8H7.4v429.9h344.9v-91.4L346.1,358.1z"
			/>
	</g>
</g>
</svg>
