<?xml version="1.0" encoding="utf-8"?>
<!-- Generator: Adobe Illustrator 27.5.0, SVG Export Plug-In . SVG Version: 6.00 Build 0)  -->
<svg height="30px" width="30px" version="1.1" id="Layer_1" xmlns="http://www.w3.org/2000/svg" xmlns:xlink="http://www.w3.org/1999/xlink" x="0px" y="0px"
	 viewBox="0 0 469.5 469.5" style="enable-background:new 0 0 469.5 469.5;" xml:space="preserve">
<style type="text/css">
	.st0{fill:#DD7800;}
	.st1{fill:none;stroke:#FFFFFF;stroke-width:24.8729;stroke-miterlimit:10;}
</style>
<g>
	<path class="st0" d="M453.2,193.9h-17.9v-65.2c0-13.4-10.9-24.3-24.3-24.3H25.2c-13.4,0-24.3,10.9-24.3,24.3v212.1
		c0,13.4,10.9,24.3,24.3,24.3h385.9c13.4,0,24.3-10.9,24.3-24.3v-61.3h17.9c8.5,0,15.3-6.9,15.3-15.3v-54.9
		C468.6,200.7,461.7,193.9,453.2,193.9z"/>
	<line class="st1" x1="64.8" y1="128.7" x2="64.8" y2="331.2"/>
	<line class="st1" x1="146.5" y1="128.7" x2="146.5" y2="331.2"/>
	<line class="st1" x1="228.2" y1="128.7" x2="228.2" y2="331.2"/>
</g>
</svg>
