<?xml version="1.0" encoding="utf-8"?>
<!-- Generator: Adobe Illustrator 27.5.0, SVG Export Plug-In . SVG Version: 6.00 Build 0)  -->
<svg height="30px" width="30px" version="1.0" id="Layer_1" xmlns="http://www.w3.org/2000/svg" xmlns:xlink="http://www.w3.org/1999/xlink" x="0px" y="0px"
	 viewBox="0 0 469.5 469.5" style="enable-background:new 0 0 469.5 469.5;" xml:space="preserve">
<style type="text/css">
	.st0{fill:none;stroke:#008000;stroke-width:30.1924;stroke-miterlimit:10;}
</style>
<g>
	<path class="st0" d="M178.9,99C88,105,16.2,180.5,16.2,272.9c0,96.2,78,174.2,174.2,174.2c86.1,0,157.6-62.4,171.7-144.5"/>
	<path class="st0" d="M452.6,167.7c0-80.4-65.2-145.5-145.5-145.5c-55.5,0-103.7,31.1-128.3,76.7c3.8-0.3,7.7-0.4,11.5-0.4
		c96.2,0,174.2,78,174.2,174.2c0,10.1-0.9,20-2.5,29.6C415.2,280.8,452.6,228.7,452.6,167.7z"/>
</g>
</svg>
