<?xml version="1.0" standalone="no"?>
<!DOCTYPE svg PUBLIC "-//W3C//DTD SVG 20010904//EN"
 "http://www.w3.org/TR/2001/REC-SVG-20010904/DTD/svg10.dtd">
<svg version="1.0" xmlns="http://www.w3.org/2000/svg"
 width="512.000000pt" height="512.000000pt" viewBox="0 0 512.000000 512.000000"
 preserveAspectRatio="xMidYMid meet">

<g transform="translate(0.000000,512.000000) scale(0.100000,-0.100000)"
fill="#000000" stroke="none">
<path d="M960 5102 c-19 -9 -40 -28 -47 -42 -10 -20 -12 -536 -10 -2513 l2
-2489 28 -23 c34 -30 89 -41 135 -26 24 7 568 434 1567 1231 842 672 1541
1232 1555 1246 20 19 25 34 25 74 0 42 -5 54 -30 79 -56 54 -3060 2445 -3095
2463 -43 23 -85 23 -130 0z"/>
</g>
</svg>
